<?xml version="1.0" standalone="no"?>
<!DOCTYPE svg PUBLIC "-//W3C//DTD SVG 20010904//EN"
 "http://www.w3.org/TR/2001/REC-SVG-20010904/DTD/svg10.dtd">
<svg version="1.0" xmlns="http://www.w3.org/2000/svg"
 width="512.000000pt" height="512.000000pt" viewBox="0 0 512.000000 512.000000"
 preserveAspectRatio="xMidYMid meet">

<g transform="translate(0.000000,512.000000) scale(0.100000,-0.100000)"
fill="#000000" stroke="none">
<path d="M1141 4945 c-236 -52 -437 -256 -487 -495 -42 -198 21 -418 160 -562
l46 -48 -138 0 c-90 0 -158 -5 -195 -15 -173 -45 -307 -178 -352 -350 -22 -87
-23 -1422 0 -1508 41 -159 145 -274 308 -340 50 -21 70 -22 510 -27 l459 -5
-481 -602 c-361 -453 -482 -612 -487 -638 -21 -111 68 -207 178 -192 21 3 49
12 62 21 13 8 269 322 568 697 298 375 557 690 573 701 38 23 72 23 110 -1 17
-10 275 -325 574 -700 298 -375 553 -688 565 -696 60 -40 139 -30 195 23 43
41 58 88 47 147 -5 26 -126 185 -487 638 l-481 602 459 5 c440 5 460 6 510 27
85 34 135 67 190 125 84 90 133 210 133 330 l0 58 310 -155 c171 -86 336 -162
368 -170 73 -19 172 -19 247 0 168 44 309 192 344 363 15 73 15 1011 0 1084
-35 171 -176 319 -344 363 -75 19 -174 19 -247 0 -32 -8 -197 -84 -368 -170
l-310 -155 0 58 c0 217 -152 411 -367 467 -37 10 -105 15 -194 15 l-136 0 44
48 c178 191 222 474 109 707 -194 399 -714 488 -1026 175 -87 -87 -153 -205
-173 -307 -6 -35 -14 -63 -17 -63 -3 0 -11 27 -17 61 -15 78 -69 188 -127 261
-149 186 -399 274 -635 223z m290 -346 c67 -36 98 -68 137 -143 22 -43 26 -64
26 -136 1 -78 -2 -90 -33 -148 -38 -70 -70 -100 -145 -140 -43 -22 -64 -26
-136 -26 -72 0 -93 4 -136 26 -75 40 -107 70 -145 140 -31 58 -34 70 -33 148
0 93 18 143 73 211 30 36 113 87 165 100 63 17 162 2 227 -32z m1280 0 c67
-36 98 -68 137 -143 22 -43 26 -64 26 -136 1 -78 -2 -90 -33 -148 -38 -70 -70
-100 -145 -140 -43 -22 -64 -26 -136 -26 -72 0 -93 4 -136 26 -75 40 -107 70
-145 140 -31 58 -34 70 -33 148 0 93 18 143 73 211 30 36 113 87 165 100 63
17 162 2 227 -32z m-781 -384 c0 -77 84 -245 164 -327 l46 -48 -219 0 -218 0
44 48 c80 85 163 253 163 329 0 12 5 23 10 23 6 0 10 -11 10 -25z m1356 -721
c15 -11 37 -33 48 -48 21 -27 21 -36 21 -726 0 -690 0 -699 -21 -726 -11 -15
-33 -37 -48 -48 -27 -21 -30 -21 -1366 -21 -1336 0 -1339 0 -1366 21 -15 11
-37 33 -48 48 -21 27 -21 39 -24 699 -2 370 0 686 3 704 7 40 49 91 90 109 25
11 269 13 1357 11 1323 -2 1327 -2 1354 -23z m1274 -196 c18 -13 43 -36 54
-51 21 -28 21 -37 21 -527 0 -490 0 -499 -21 -527 -34 -46 -82 -73 -131 -73
-36 0 -104 31 -423 190 l-380 190 0 220 0 220 378 189 c416 209 433 215 502
169z"/>
</g>
</svg>
